<svg width="110" height="124" viewBox="0 0 110 124" fill="none" xmlns="http://www.w3.org/2000/svg">
<path d="M19.9553 19.234C20.3156 18.8737 20.6884 18.5334 21.0562 18.187L20.4888 17.6185C20.1198 17.9663 19.7469 18.3051 19.3866 18.6654C19.0276 19.025 18.6886 19.3973 18.3408 19.7663L18.9094 20.3337C19.2561 19.9659 19.5962 19.5929 19.9553 19.234Z" fill="white"/>
<path d="M18.9124 20.522L18.1577 19.7691L18.2451 19.6763C18.3396 19.5762 18.4332 19.4757 18.527 19.3753C18.7747 19.1102 19.0305 18.836 19.2937 18.5726C19.5574 18.3089 19.8316 18.0529 20.0968 17.8054C20.1975 17.7115 20.2983 17.6175 20.3987 17.5229L20.4915 17.4353L21.2444 18.1898L20.8649 18.546C20.5948 18.7986 20.3152 19.0595 20.0482 19.3268C19.7839 19.5912 19.5248 19.8685 19.2742 20.1366C19.1846 20.2325 19.0949 20.3283 19.0051 20.4237L18.9124 20.522ZM18.5237 19.7633L18.9063 20.1451L19.0823 19.9573C19.3344 19.6876 19.5949 19.4088 19.8624 19.1413C20.1328 18.8709 20.4139 18.6083 20.6857 18.3545L20.8675 18.1839L20.4859 17.8013C20.4159 17.8669 20.3459 17.9322 20.276 17.9975C20.0126 18.2435 19.7399 18.4978 19.4797 18.7582C19.2197 19.0185 18.9652 19.2912 18.7191 19.5546C18.6541 19.6241 18.5892 19.6938 18.5237 19.7633Z" fill="white"/>
<path d="M90.0419 89.3211C89.6829 89.6814 89.3113 90.0203 88.9421 90.3667L89.5095 90.9354C89.8787 90.5878 90.2515 90.2488 90.6104 89.8896C90.9707 89.5294 91.3097 89.1566 91.6574 88.7875L91.0886 88.22C90.7425 88.5893 90.4035 88.9609 90.0419 89.3211Z" fill="white"/>
<path d="M89.5067 91.1186L88.7537 90.3638L89.111 90.0292C89.3885 89.7704 89.6753 89.503 89.9488 89.2284L89.9492 89.2281C90.2268 88.9513 90.4967 88.662 90.7577 88.3824L91.0858 88.0316L91.8405 88.7848L91.7531 88.8777C91.6586 88.9779 91.565 89.0784 91.4712 89.1787C91.2234 89.4442 90.9674 89.7188 90.7034 89.9825C90.4398 90.2462 90.1647 90.5028 89.8988 90.7509C89.7991 90.8439 89.6992 90.9371 89.5997 91.0309L89.5067 91.1186ZM89.131 90.3702L89.5125 90.7528C89.5815 90.688 89.6505 90.6237 89.7196 90.5592C89.9839 90.3126 90.2572 90.0574 90.5176 89.797C90.7785 89.5363 91.033 89.2635 91.279 88.9997C91.3441 88.93 91.409 88.8603 91.4743 88.7906L91.0919 88.409L90.9495 88.5615C90.6871 88.8429 90.4156 89.134 90.1346 89.4139C89.8575 89.6919 89.569 89.961 89.2901 90.2212L89.131 90.3702Z" fill="white"/>
<path d="M16.8846 85.9494C1.6625 67.6582 1.66628 40.9009 16.8871 22.609L16.3185 22.0398C0.787601 40.6474 0.785145 67.9105 16.3148 86.5182L16.3185 86.5155L16.8846 85.9494Z" fill="white"/>
<path d="M16.2933 86.6902L16.2141 86.6023C8.68374 77.5792 4.53702 66.0999 4.53784 54.2788C4.53866 42.4578 8.6867 30.9787 16.2181 21.9555L16.3101 21.8451L17.0649 22.6008L16.9883 22.6929C9.64622 31.5166 5.60216 42.7342 5.60134 54.2794C5.60052 65.8254 9.64343 77.043 16.9857 85.8654L17.0625 85.9574L16.3916 86.6247L16.2933 86.6902ZM16.3275 22.2342C8.89366 31.1935 4.80121 42.5676 4.80039 54.2789C4.79957 65.9905 8.89136 77.3652 16.3243 86.3243L16.7074 85.9412C9.37481 77.0858 5.33796 65.8462 5.33878 54.2794C5.3396 42.7133 9.37744 31.4736 16.71 22.6172L16.3275 22.2342Z" fill="white"/>
<path d="M21.0548 90.3682C20.687 90.023 20.3154 89.6814 19.9564 89.3213C19.5961 88.961 19.2547 88.5907 18.9083 88.2215L18.3409 88.7889L18.3396 88.7902C18.6861 89.1581 19.0275 89.5295 19.3878 89.8898C19.7481 90.2488 20.1184 90.5904 20.4863 90.9367L20.4876 90.9354L21.0548 90.3682Z" fill="white"/>
<path d="M20.4901 91.1185L20.1586 90.8092C19.8738 90.5422 19.5794 90.2659 19.2951 89.9828C19.0136 89.7016 18.7401 89.4095 18.4757 89.1271L18.1624 88.7935L18.2409 88.7038L18.9115 88.0329L19.1896 88.3298C19.4674 88.6267 19.7549 88.9341 20.0494 89.2284C20.3389 89.5189 20.6418 89.8021 20.9348 90.076L21.2436 90.3652L20.4901 91.1185ZM18.5223 88.793L18.6673 88.9477C18.9303 89.2284 19.2024 89.5189 19.4807 89.797C19.7618 90.0771 20.0548 90.352 20.3382 90.6178L20.4833 90.7541L20.8663 90.3713L20.7556 90.2678C20.4609 89.9923 20.1562 89.7075 19.8636 89.4139C19.5663 89.1166 19.2773 88.8078 18.9979 88.5092L18.9056 88.4103L18.5223 88.793Z" fill="white"/>
<path d="M22.7585 92.9616C41.3662 108.493 68.6287 108.49 87.2363 92.9591L86.6676 92.3892C68.375 107.611 41.6184 107.614 23.3271 92.3917L22.761 92.9591L22.7585 92.9616Z" fill="white"/>
<path d="M54.9945 104.74C43.1744 104.74 31.6967 100.593 22.6743 93.0622L22.564 92.9703L23.319 92.2141L23.411 92.2908C32.2327 99.6323 43.4498 103.676 54.994 103.676C54.9955 103.676 54.9955 103.676 54.9968 103.676C66.5421 103.675 77.76 99.631 86.5837 92.2882L86.6758 92.2115L87.4305 92.9678L87.3203 93.0598C78.2973 100.591 66.8179 104.739 54.9973 104.74C54.9965 104.74 54.9954 104.74 54.9945 104.74ZM22.9528 92.9527C31.9107 100.385 43.2845 104.477 54.9945 104.477C54.996 104.477 54.9959 104.477 54.9973 104.477C66.7084 104.477 78.0826 100.384 87.0417 92.9501L86.6593 92.5667C77.8027 99.8998 66.5629 103.938 54.997 103.938C54.9962 103.938 54.9947 103.938 54.9942 103.938C43.4285 103.938 32.1907 99.9016 23.3355 92.5693L22.9528 92.9527Z" fill="white"/>
<path d="M88.9434 18.1857C89.3112 18.5322 89.6828 18.8737 90.0431 19.234C90.4034 19.593 90.7435 19.9646 91.09 20.3324L91.6574 19.7656L91.6588 19.7643C91.3122 19.3965 90.9708 19.0257 90.6118 18.6652C90.2515 18.3056 89.8799 17.9642 89.5121 17.617L89.5109 17.6183L88.9434 18.1857Z" fill="white"/>
<path d="M91.0873 20.5208L90.7481 20.1596C90.4903 19.884 90.2237 19.5992 89.9505 19.327C89.6746 19.0511 89.3868 18.7815 89.1085 18.5208L88.7551 18.1885L89.5085 17.4353L89.8737 17.7764C90.1481 18.0336 90.4316 18.2997 90.7047 18.5724C90.9841 18.8529 91.2565 19.1435 91.52 19.4245L91.8472 19.7727L91.7464 19.8624L91.0873 20.5208ZM89.1321 18.1828L89.2879 18.3292C89.5679 18.5915 89.8573 18.8625 90.1359 19.1413C90.4121 19.4165 90.6802 19.7032 90.9397 19.9803L91.093 20.1438L91.4758 19.7614L91.3282 19.6041C91.066 19.3245 90.795 19.0354 90.5187 18.7579C90.2488 18.4883 89.9667 18.2238 89.6938 17.968L89.5151 17.7999L89.1321 18.1828Z" fill="white"/>
<path d="M87.2399 15.5924C68.6323 0.0627301 41.371 0.0653551 22.7622 15.5961L23.3308 16.1654C41.6234 0.945179 68.3786 0.941404 86.6699 16.1622L87.236 15.5961L87.2399 15.5924Z" fill="white"/>
<path d="M23.3227 16.343L22.5679 15.5873L22.6782 15.4953C31.7019 7.96407 43.1813 3.81604 55.0017 3.81522C55.0024 3.81522 55.0045 3.81522 55.0052 3.81522C66.825 3.81522 78.3017 7.96161 87.3241 15.4915L87.4344 15.5837L86.6783 16.3398L86.5861 16.2633C77.7646 8.92261 66.5486 4.87986 55.0048 4.87986C55.0034 4.87986 55.0024 4.87986 55.0011 4.87986C43.4563 4.88068 32.2389 8.92458 23.4149 16.2664L23.3227 16.343ZM22.9567 15.6052L23.3391 15.9881C32.1959 8.65563 43.4353 4.61812 55.0007 4.6173C55.0016 4.6173 55.0039 4.6173 55.0045 4.6173C66.57 4.6173 77.8066 8.65317 86.6615 15.9848L87.0451 15.6012C78.0873 8.16923 66.7144 4.07777 55.0048 4.07777C55.0034 4.07777 55.0027 4.07777 55.0014 4.07777C43.2907 4.07859 31.9164 8.17136 22.9567 15.6052Z" fill="white"/>
<path d="M93.1133 22.6059C108.335 40.896 108.332 67.6532 93.1108 85.9456L93.6794 86.5144C109.211 67.9067 109.214 40.6436 93.6833 22.036L93.6794 22.0397L93.1133 22.6059Z" fill="white"/>
<path d="M93.6884 86.7087L92.9333 85.9537L93.0101 85.8615C100.352 77.0375 104.396 65.8198 104.397 54.2747C104.398 42.7288 100.355 31.5117 93.0127 22.6897L92.936 22.5975L93.6885 21.8451L93.7843 21.9515C101.315 30.9744 105.462 42.4539 105.462 54.275C105.461 66.0958 101.312 77.5751 93.7805 86.5983L93.6884 86.7087ZM93.2884 85.9374L93.6708 86.3199C101.105 77.3606 105.198 65.9866 105.199 54.2752C105.2 42.5636 101.108 31.1896 93.6746 22.2306L93.291 22.6142C100.624 31.4692 104.66 42.7083 104.66 54.2748C104.659 65.8408 100.621 77.0805 93.2884 85.9374Z" fill="white"/>
<path d="M54.9999 108.411C25.1502 108.411 0.865967 84.1271 0.865967 54.2775C0.865967 24.4278 25.1502 0.143585 54.9999 0.143585C84.8495 0.143585 109.134 24.4278 109.134 54.2775C109.134 84.1271 84.8495 108.411 54.9999 108.411ZM54.9999 1.93422C26.1376 1.93422 2.65661 25.4152 2.65661 54.2775C2.65661 83.1397 26.1376 106.621 54.9999 106.621C83.8621 106.621 107.343 83.1397 107.343 54.2775C107.343 25.4152 83.8621 1.93422 54.9999 1.93422Z" fill="white"/>
<path d="M54.9999 108.543C25.0781 108.543 0.734863 84.1993 0.734863 54.2775C0.734863 24.3557 25.0781 0.0123901 54.9999 0.0123901C84.9217 0.0123901 109.265 24.3557 109.265 54.2775C109.265 84.1993 84.9217 108.543 54.9999 108.543ZM54.9999 0.274945C25.2229 0.274945 0.997416 24.5005 0.997416 54.2775C0.997416 84.0545 25.2229 108.28 54.9999 108.28C84.7769 108.28 109.002 84.0546 109.002 54.2775C109.002 24.5003 84.7769 0.274945 54.9999 0.274945ZM54.9999 106.752C26.0654 106.752 2.5255 83.2119 2.5255 54.2775C2.5255 25.3429 26.0655 1.80286 54.9999 1.80286C83.9343 1.80286 107.475 25.3429 107.475 54.2775C107.475 83.2119 83.9345 106.752 54.9999 106.752ZM54.9999 2.06542C26.2102 2.06542 2.78805 25.4877 2.78805 54.2775C2.78805 83.0672 26.2102 106.489 54.9999 106.489C83.7897 106.489 107.212 83.0672 107.212 54.2775C107.212 25.4877 83.7897 2.06542 54.9999 2.06542Z" fill="white"/>
<path d="M54.8239 96.2916C77.7392 96.2916 96.3156 77.7152 96.3156 54.8C96.3156 31.8847 77.7392 13.3083 54.8239 13.3083C31.9087 13.3083 13.3323 31.8847 13.3323 54.8C13.3323 77.7152 31.9087 96.2916 54.8239 96.2916Z" fill="#E7AEB8"/>
<path d="M96.3158 54.3947C96.3158 77.5566 77.7393 96.3329 54.8241 96.3329C31.9089 96.3329 13.3323 77.5566 13.3323 54.3947H96.3158Z" fill="#187C58"/>
<path d="M66.3239 40.7982C66.0728 40.162 65.8219 39.5257 65.5708 38.8892C65.5338 38.7952 65.1667 38.9195 65.1333 38.9892C62.9755 43.5125 60.8175 48.0357 58.6597 52.559C58.4543 52.9895 58.249 53.42 58.0437 53.8503C56.2708 47.7253 54.4977 41.6003 52.7248 35.4754C52.4652 34.579 52.2057 33.6828 51.9463 32.7865C51.9178 32.6878 51.5452 32.8252 51.5089 32.8866C47.7866 39.1732 44.0643 45.4597 40.342 51.7464C39.8066 52.6505 39.2713 53.5546 38.736 54.4589C38.7322 54.4652 38.7406 54.4702 38.7562 54.4736C38.7431 54.4905 38.7545 54.5021 38.8085 54.5021C42.4573 54.5021 46.1062 54.5021 49.755 54.5021C52.4284 54.5021 55.1017 54.5021 57.7749 54.5021C57.8026 54.5139 57.8495 54.5118 57.9017 54.5021C61.0325 54.5021 64.1633 54.5021 67.2941 54.5021C68.6322 54.5021 69.9704 54.5021 71.3086 54.5021C71.3557 54.5021 71.7071 54.4434 71.6736 54.3588C69.8902 49.8387 68.1071 45.3184 66.3239 40.7982Z" fill="#187C58"/>
<path d="M49.4583 23.674C49.4509 22.7444 48.8074 22.1816 47.8956 22.1911C47.0798 22.1997 46.327 22.3482 45.5115 22.2062C44.9875 22.115 44.355 21.9999 43.8681 22.2854C42.928 22.8366 43.2946 25.0075 44.3698 25.2239C44.9918 25.349 45.5842 24.9887 46.188 24.9262C46.6012 24.8834 46.9102 24.9669 47.2333 24.9961C48.1693 25.0805 49.3573 24.824 49.4526 23.7207C49.4564 23.7059 49.4583 23.6905 49.4583 23.674Z" fill="white"/>
<path d="M76.1769 33.4297C76.1669 32.1693 75.2941 31.406 74.0578 31.4188C72.9513 31.4303 71.9305 31.6319 70.8248 31.4393C70.1142 31.3157 69.2566 31.1597 68.5963 31.5468C67.3213 32.2942 67.8187 35.2382 69.2766 35.5315C70.12 35.701 70.9232 35.2126 71.7422 35.1279C72.3026 35.0698 72.7216 35.183 73.1599 35.2225C74.4291 35.3371 76.0401 34.9891 76.1695 33.493C76.1743 33.4732 76.1771 33.4522 76.1769 33.4297Z" fill="white"/>
<path d="M40.6202 38.5975C40.0702 38.6032 39.5628 38.7034 39.0131 38.6076C38.6598 38.5461 38.2334 38.4686 37.9053 38.6609C37.2715 39.0325 37.5188 40.4959 38.2434 40.6416C38.6626 40.7259 39.0619 40.4832 39.469 40.4411C39.7476 40.4122 39.9559 40.4685 40.1736 40.4881C40.8137 40.5459 41.6301 40.3683 41.6735 39.5972C41.6686 38.9706 41.2348 38.5911 40.6202 38.5975Z" fill="white"/>
<path d="M33.2102 45.0622L33.4575 54.6451H32.9009L33.0865 45.0622H33.2102Z" fill="#187C58"/>
<path d="M32.8699 45.0778C32.8699 45.2229 32.9875 45.3405 33.1326 45.3405C33.2777 45.3405 33.3953 45.2229 33.3953 45.0778C33.3953 44.9326 33.2777 44.8151 33.1326 44.8151C32.9875 44.8149 32.8699 44.9326 32.8699 45.0778Z" fill="#187C58"/>
<path d="M33.1392 45.0748C33.1392 45.0748 35.8711 44.7106 37.8413 45.1224C37.8413 45.1224 35.47 45.4881 33.1392 45.0748Z" fill="#187C58"/>
<path d="M33.1333 45.0683C33.1333 45.0683 31.414 42.9142 30.752 41.0134C30.752 41.0134 32.2869 42.8575 33.1333 45.0683Z" fill="#187C58"/>
<path d="M30.7236 49.0936C30.7236 49.0936 31.7866 46.5508 33.1356 45.0568C33.1356 45.0568 32.2558 47.2891 30.7236 49.0936Z" fill="#187C58"/>
<path d="M79.9402 54.3793H79.9364C77.8871 54.4475 29.7226 56.0857 27.4282 59.3025C27.328 59.4429 27.2989 59.5953 27.3444 59.7427C27.8063 61.2446 36.4376 62.0622 47.3651 63.0977C59.9457 64.2896 74.2045 65.6405 75.2211 68.2757C75.349 68.6077 75.2437 68.9529 74.8985 69.3309C72.5793 71.8708 66.7661 74.14 61.1443 76.3344C54.8596 78.7875 48.9234 81.1046 48.2061 83.6589C48.0298 84.287 48.1736 84.9118 48.6338 85.5158C52.8111 90.9986 64.9389 95.0922 65.0609 95.1329L65.0954 95.1443L65.1309 95.1365C65.2064 95.1196 72.775 93.3914 80.3695 87.5364C84.8308 84.0968 88.4297 79.9269 91.0668 75.1425C94.3622 69.1634 96.1546 62.2037 96.3949 54.4567L96.3991 54.3208L79.9402 54.3793Z" fill="white"/>
<path d="M72.7067 71.4608C71.9815 70.6633 71.2562 69.8658 70.5308 69.0683C69.8585 68.329 69.1861 67.5896 68.5137 66.8503C68.4921 66.8264 68.4189 66.8149 68.3942 66.8393C66.7854 68.4166 65.1765 69.9937 63.5675 71.571C63.5652 71.5723 63.5639 71.5741 63.5626 71.5759C63.5626 71.5759 63.5624 71.5763 63.5621 71.5763C63.5621 71.5763 63.5621 71.5768 63.562 71.5771C63.5608 71.5791 63.5588 71.5805 63.5588 71.5828C63.5588 73.7582 63.5588 75.9334 63.5588 78.1088C63.5588 78.4243 63.5588 78.7396 63.5588 79.0552C63.5588 79.084 63.619 79.0921 63.6374 79.0921C66.3057 79.0921 68.974 79.0921 71.6424 79.0921C72.0207 79.0921 72.3989 79.0921 72.777 79.0921C72.787 79.0921 72.8284 79.0924 72.8284 79.0739C72.8284 77.03 72.8284 74.9862 72.8284 72.9422C72.8284 72.5492 72.8292 72.1563 72.8284 71.7634C72.8284 71.5943 72.8213 71.5868 72.7067 71.4608Z" fill="#E7AEB8"/>
<path d="M69.4814 75.4585H66.8557V79.1345H69.4814V75.4585Z" fill="white"/>
<path d="M44.633 60.222C44.4862 60.0102 44.2692 59.8222 44.096 59.6317C43.8012 59.3075 43.5063 58.9832 43.2115 58.659C42.7705 58.1743 42.3297 57.6893 41.8887 57.2046C41.8671 57.1806 41.7939 57.1692 41.7692 57.1936C40.7204 58.2217 39.6718 59.2497 38.6231 60.2778C38.6208 60.2791 38.6195 60.2809 38.6182 60.2827L38.6179 60.283C38.6177 60.2834 38.6179 60.2835 38.6177 60.2839C38.6166 60.2857 38.6147 60.2873 38.6147 60.2896C38.6147 61.9141 38.6147 63.5385 38.6147 65.163C38.6147 65.1918 38.6749 65.2 38.6933 65.2C40.6804 65.2 42.6673 65.2 44.6543 65.2C44.6643 65.2 44.7056 65.2004 44.7056 65.1818C44.7056 63.8424 44.7056 62.5029 44.7056 61.1634C44.7053 60.8769 44.7983 60.4608 44.633 60.222Z" fill="#E7AEB8"/>
<path d="M42.4995 62.8207H40.7871V65.2181H42.4995V62.8207Z" fill="white"/>
<path d="M66.7894 53.9783C66.7122 53.7617 66.403 53.5321 66.2484 53.3621C65.9804 53.0675 65.7126 52.773 65.4448 52.4785C65.4232 52.4545 65.35 52.443 65.3251 52.4675C64.8267 52.956 64.3284 53.4446 63.83 53.9331C63.8277 53.9344 63.8264 53.9362 63.8251 53.938L63.8246 53.9383L63.8244 53.939C63.8233 53.941 63.8213 53.9424 63.8213 53.9449C63.8213 54.7183 63.8213 55.4918 63.8213 56.2652C63.8213 56.2941 63.8815 56.3021 63.8998 56.3021C64.8459 56.3021 65.792 56.3021 66.7381 56.3021C66.7481 56.3021 66.7894 56.3025 66.7894 56.2839C66.7894 55.9241 66.7894 55.5643 66.7894 55.2047C66.7894 54.9492 66.7894 54.6938 66.7894 54.4383C66.7894 54.3134 66.8322 54.0984 66.7894 53.9783Z" fill="#E7AEB8"/>
<path d="M65.7053 55.1548H64.8899V56.2964H65.7053V55.1548Z" fill="white"/>
<path d="M17.1819 102.632L16.2655 103.753L14.0759 101.962L13.0113 103.264L14.9425 104.843L14.0259 105.964L12.0949 104.385L10.9458 105.79L13.1353 107.58L12.2187 108.701L8.55493 105.705L13.5182 99.6359L17.1819 102.632Z" fill="white"/>
<path d="M18.0559 111.474C17.7596 110.434 17.9005 109.412 18.4785 108.409C19.0566 107.405 19.8697 106.77 20.9182 106.505C21.9663 106.239 22.9764 106.386 23.9479 106.945C24.7006 107.379 25.2547 107.963 25.6106 108.699C25.9661 109.436 26.0561 110.224 25.8802 111.065L23.9114 109.931C23.9393 109.288 23.6702 108.803 23.1043 108.477C22.538 108.151 21.9906 108.071 21.462 108.238C20.9333 108.405 20.4988 108.784 20.1578 109.376C19.8169 109.968 19.707 110.534 19.828 111.075C19.9491 111.616 20.2928 112.05 20.8589 112.376C21.425 112.702 21.9793 112.691 22.5221 112.344L24.4908 113.478C23.8516 114.052 23.1243 114.37 22.3094 114.432C21.494 114.494 20.7103 114.307 19.9576 113.874C18.9859 113.314 18.3519 112.515 18.0559 111.474Z" fill="white"/>
<path d="M29.2074 117.17C28.7282 116.198 28.6817 115.166 29.0675 114.074C29.4533 112.982 30.1376 112.21 31.1201 111.757C32.1026 111.305 33.1241 111.267 34.1846 111.642C35.2452 112.016 36.0122 112.687 36.4856 113.653C36.9591 114.62 37.0028 115.649 36.6168 116.741C36.2311 117.833 35.5479 118.607 34.5675 119.064C33.587 119.521 32.5685 119.563 31.5117 119.189C30.4548 118.816 29.6866 118.143 29.2074 117.17ZM33.7143 117.452C34.2036 117.192 34.5625 116.74 34.7901 116.096C35.0175 115.452 35.0226 114.875 34.8052 114.365C34.5877 113.855 34.1831 113.495 33.5916 113.286C33.0001 113.077 32.4596 113.103 31.9702 113.363C31.4805 113.623 31.1221 114.075 30.8944 114.719C30.6668 115.363 30.6619 115.94 30.8793 116.45C31.0966 116.96 31.5012 117.319 32.0929 117.528C32.6842 117.737 33.2248 117.712 33.7143 117.452Z" fill="white"/>
<path d="M44.2435 115.797C44.0091 115.757 43.8066 115.787 43.6357 115.887C43.4647 115.986 43.3596 116.153 43.3204 116.387C43.281 116.622 43.3191 116.822 43.4342 116.988C43.5493 117.154 43.7122 117.294 43.9227 117.408C44.1331 117.523 44.3698 117.638 44.6328 117.753C44.8959 117.869 45.1543 117.999 45.4087 118.143C45.663 118.287 45.8897 118.451 46.0884 118.635C46.2872 118.819 46.4339 119.056 46.5282 119.347C46.6224 119.637 46.6384 119.969 46.5758 120.342C46.4667 120.994 46.1078 121.508 45.499 121.884C44.8901 122.26 44.152 122.376 43.2845 122.23C42.4168 122.085 41.7524 121.759 41.2916 121.252C40.8305 120.746 40.6647 120.109 40.7934 119.34L42.7923 119.675C42.7405 120.298 43.0039 120.659 43.5824 120.756C43.853 120.801 44.0775 120.765 44.2553 120.648C44.4329 120.531 44.5402 120.363 44.5771 120.143C44.6138 119.923 44.5743 119.732 44.4585 119.57C44.3427 119.408 44.1799 119.267 43.97 119.149C43.76 119.031 43.5237 118.915 43.2608 118.799C42.9978 118.684 42.7394 118.552 42.4858 118.404C42.2321 118.256 42.0055 118.092 41.8061 117.912C41.6065 117.731 41.4596 117.496 41.3654 117.205C41.2708 116.915 41.2544 116.587 41.3159 116.221C41.4359 115.503 41.7995 114.973 42.4064 114.63C43.0132 114.288 43.7323 114.186 44.5633 114.326C45.3942 114.465 46.0345 114.766 46.484 115.229C46.9331 115.692 47.1011 116.332 46.9868 117.148L44.9439 116.806C44.9611 116.523 44.9072 116.293 44.7824 116.118C44.6574 115.943 44.4778 115.836 44.2435 115.797Z" fill="white"/>
<path d="M55.7524 123.138L53.8485 123.107L53.8895 120.591L51.27 115.247L53.4301 115.282L54.8759 118.836L56.4253 115.331L58.5856 115.366L55.7936 120.622L55.7524 123.138Z" fill="white"/>
<path d="M65.1447 115.897C64.9102 115.935 64.7277 116.028 64.5976 116.177C64.4674 116.326 64.4213 116.518 64.4591 116.752C64.4969 116.987 64.597 117.164 64.7593 117.285C64.9215 117.405 65.1206 117.486 65.3567 117.527C65.5927 117.568 65.8538 117.601 66.14 117.626C66.4261 117.652 66.7126 117.692 66.9996 117.747C67.2868 117.802 67.5538 117.885 67.8012 117.996C68.0484 118.106 68.2632 118.284 68.4455 118.529C68.6279 118.774 68.7493 119.084 68.8096 119.457C68.9149 120.11 68.7393 120.711 68.283 121.262C67.8266 121.814 67.1643 122.159 66.2958 122.299C65.4273 122.439 64.6936 122.344 64.0948 122.011C63.4959 121.679 63.1346 121.129 63.0105 120.359L65.0115 120.036C65.1619 120.644 65.5268 120.901 66.1059 120.807C66.3769 120.763 66.5782 120.658 66.709 120.49C66.8399 120.322 66.8876 120.128 66.852 119.908C66.8166 119.688 66.7179 119.52 66.5563 119.403C66.3946 119.287 66.1956 119.206 65.9589 119.161C65.7223 119.117 65.461 119.082 65.175 119.057C64.889 119.031 64.602 118.989 64.3142 118.93C64.0264 118.871 63.7593 118.789 63.5128 118.682C63.266 118.575 63.0515 118.399 62.8693 118.154C62.6868 117.909 62.5661 117.603 62.507 117.237C62.3913 116.518 62.5657 115.9 63.0312 115.381C63.4964 114.862 64.145 114.536 64.9769 114.402C65.8087 114.268 66.5117 114.348 67.0857 114.642C67.6597 114.937 68.0233 115.489 68.1766 116.3L66.1316 116.629C66.0573 116.356 65.933 116.156 65.7585 116.03C65.5839 115.904 65.3792 115.859 65.1447 115.897Z" fill="white"/>
<path d="M72.1187 114.516L71.6658 113.14L77.5254 111.21L77.9784 112.585L75.9476 113.254L77.9406 119.304L76.132 119.9L74.1389 113.85L72.1187 114.516Z" fill="white"/>
<path d="M85.4273 107.452L86.0826 108.743L83.5604 110.024L84.3217 111.523L86.5459 110.394L87.2011 111.685L84.9768 112.814L85.7984 114.433L88.3206 113.152L88.9758 114.443L84.7556 116.585L81.2068 109.595L85.4273 107.452Z" fill="white"/>
<path d="M96.3599 99.9196L101.081 106.151L99.5632 107.3L96.8999 103.786L98.1163 108.397L96.989 109.251L92.879 106.832L95.5422 110.347L94.0245 111.497L89.3035 105.266L91.0431 103.948L96.0911 106.885L94.6203 101.238L96.3599 99.9196Z" fill="white"/>
</svg>
